<svg width="427" height="66" viewBox="0 0 427 66" fill="none" xmlns="http://www.w3.org/2000/svg">
<path d="M294 10.3333L302.261 3.95231C303.739 2.81042 305.81 2.84365 307.251 4.03235L314.364 9.89994C315.842 11.1193 317.977 11.1193 319.455 9.89994L326.485 4.10006C327.963 2.88072 330.098 2.88072 331.576 4.10006L338.606 9.89994C340.084 11.1193 342.219 11.1193 343.697 9.89994L350.727 4.10006C352.205 2.88072 354.34 2.88072 355.818 4.10006L362.848 9.89994C364.326 11.1193 366.461 11.1193 367.939 9.89994L374.97 4.10006C376.448 2.88072 378.583 2.88072 380.061 4.10006L387.091 9.89994C388.569 11.1193 390.704 11.1193 392.182 9.89994L399.212 4.10006C400.69 2.88072 402.825 2.88072 404.303 4.10006L411.336 9.90203C412.813 11.1204 414.946 11.1215 416.424 9.90453L424 3.66667" stroke="#686868" stroke-width="5" stroke-linecap="round"/>
<path d="M20.4 52.5C19.2667 49.7333 18.1333 46.9833 17 44.25C15.9 41.5167 14.7833 38.7833 13.65 36.05C13.3833 35.4167 13.0333 34.5333 12.6 33.4C12.2 32.2333 11.7667 30.9 11.3 29.4C10.8667 27.9 10.4667 26.35 10.1 24.75C10.1667 26.6167 10.2167 28.3833 10.25 30.05C10.2833 31.6833 10.2833 33.25 10.25 34.75C10.25 35.4833 10.25 36.2333 10.25 37C10.25 37.7667 10.2333 38.5333 10.2 39.3C10.2 40.0333 10.2 40.7833 10.2 41.55C10.2 42.2833 10.2 43.0333 10.2 43.8C10.2 44.7 10.1667 45.5667 10.1 46.4C10.0667 47.2333 10.0167 47.8667 9.95 48.3C10.5167 48.2333 11.2 48.2 12 48.2C12.8333 48.1667 13.4167 48.15 13.75 48.15V52H2.35V48.7C3.11667 48.6667 3.75 48.5667 4.25 48.4C4.78333 48.2333 5.18333 47.85 5.45 47.25C5.75 46.65 5.9 45.6833 5.9 44.35L6.2 25.2C6.23333 24.3 6.26667 23.4333 6.3 22.6C6.33333 21.7667 6.36667 21.1333 6.4 20.7C5.86667 20.7333 5.2 20.7667 4.4 20.8C3.6 20.8 3.01667 20.8167 2.65 20.85V17H13.7L21.25 36.35C21.55 37.1167 21.8833 38.0167 22.25 39.05C22.6167 40.05 22.9667 41.0333 23.3 42C23.6333 42.9333 23.8833 43.6833 24.05 44.25H24.1C24.5333 43.0833 24.9333 41.95 25.3 40.85C25.6667 39.75 26.05 38.6833 26.45 37.65C27.75 34.1833 29.0333 30.7333 30.3 27.3C31.6 23.8667 32.9 20.4333 34.2 17H45.75V20.3C45.0167 20.3333 44.3667 20.4333 43.8 20.6C43.2333 20.7667 42.8 21.15 42.5 21.75C42.2333 22.3167 42.1167 23.2833 42.15 24.65L42.9 43.8C42.9667 44.7 42.9667 45.5667 42.9 46.4C42.8333 47.2333 42.7667 47.8667 42.7 48.3C43.2667 48.2333 43.95 48.2 44.75 48.2C45.5833 48.1667 46.1667 48.15 46.5 48.15V52H32.6V48.7C33.3667 48.6667 34.0167 48.5667 34.55 48.4C35.1167 48.2333 35.5333 47.85 35.8 47.25C36.1 46.65 36.2167 45.6833 36.15 44.35L35.75 33.75C35.75 33.35 35.7167 32.6667 35.65 31.7C35.5833 30.7 35.5167 29.6167 35.45 28.45C35.4167 27.25 35.3833 26.1333 35.35 25.1C35.25 25.3333 35.15 25.5667 35.05 25.8C34.95 26 34.8667 26.2167 34.8 26.45L25.05 52.5H20.4ZM52.234 52V48.75C53.134 48.7167 53.8507 48.5667 54.384 48.3C54.9507 48 55.234 47.1333 55.234 45.7V35.05C55.234 34.5833 55.2507 33.9167 55.284 33.05C55.3173 32.1833 55.3507 31.3833 55.384 30.65C54.8507 30.6833 54.2673 30.7167 53.634 30.75C53.034 30.7833 52.5507 30.8 52.184 30.8V27H65.334V30.25C64.4007 30.25 63.7173 30.4333 63.284 30.8C62.884 31.1667 62.6173 31.6833 62.484 32.35C62.384 33.0167 62.334 33.8 62.334 34.7L62.384 36.9L64.684 36.8C67.684 36.7 70.0007 36.9667 71.634 37.6C73.2673 38.2333 74.4007 39.1333 75.034 40.3C75.6673 41.4333 75.984 42.7 75.984 44.1C75.984 45.9 75.584 47.3833 74.784 48.55C73.984 49.7167 72.9173 50.5833 71.584 51.15C70.2507 51.7167 68.784 52 67.184 52H52.234ZM62.034 48.6C62.734 48.6 63.3673 48.6 63.934 48.6C64.534 48.6 65.134 48.5833 65.734 48.55C66.7007 48.4833 67.5007 48.1 68.134 47.4C68.8007 46.6667 69.134 45.65 69.134 44.35C69.2007 42.85 68.8507 41.7333 68.084 41C67.3173 40.2667 66.4007 39.9 65.334 39.9C64.6673 39.9333 64.1173 39.95 63.684 39.95C63.284 39.9167 62.834 39.9167 62.334 39.95V45.6C62.334 46.2 62.3007 46.75 62.234 47.25C62.1673 47.75 62.1007 48.2 62.034 48.6ZM77.784 52V48.75C78.7173 48.75 79.384 48.5667 79.784 48.2C80.2173 47.8333 80.484 47.3167 80.584 46.65C80.7173 45.95 80.784 45.1667 80.784 44.3V35.05C80.784 34.5833 80.8007 33.9167 80.834 33.05C80.8673 32.1833 80.9173 31.3833 80.984 30.65C80.4507 30.6833 79.8673 30.7167 79.234 30.75C78.6007 30.7833 78.1007 30.8 77.734 30.8V27H90.834V30.25C89.934 30.25 89.2673 30.4333 88.834 30.8C88.434 31.1667 88.1673 31.6833 88.034 32.35C87.934 33.0167 87.884 33.8 87.884 34.7V43.95C87.884 44.4167 87.8673 45.0833 87.834 45.95C87.8007 46.7833 87.7507 47.5833 87.684 48.35C88.2173 48.2833 88.8007 48.25 89.434 48.25C90.1007 48.2167 90.6007 48.2 90.934 48.2V52H77.784ZM111.289 52V48.75C112.222 48.75 112.889 48.5667 113.289 48.2C113.722 47.8333 113.989 47.3167 114.089 46.65C114.222 45.95 114.289 45.1667 114.289 44.3V35.05C114.289 34.5833 114.305 33.9167 114.339 33.05C114.372 32.1833 114.405 31.3833 114.439 30.65L111.239 30.8V27H140.039V30.25C139.139 30.25 138.472 30.4333 138.039 30.8C137.639 31.1667 137.372 31.6833 137.239 32.35C137.139 33.0167 137.089 33.8 137.089 34.7V43.95C137.089 44.4167 137.072 45.0833 137.039 45.95C137.005 46.7833 136.955 47.5833 136.889 48.35L140.139 48.2V52H126.989V48.75C127.922 48.75 128.589 48.5667 128.989 48.2C129.422 47.8333 129.689 47.3167 129.789 46.65C129.922 45.95 129.989 45.1667 129.989 44.3V35C129.989 34.5333 130.005 33.9167 130.039 33.15C130.072 32.35 130.122 31.6 130.189 30.9H124.389C123.455 30.9 122.772 31.0667 122.339 31.4C121.939 31.7 121.672 32.1333 121.539 32.7C121.439 33.2333 121.389 33.8833 121.389 34.65V43.95C121.389 44.4167 121.372 45.0833 121.339 45.95C121.305 46.7833 121.255 47.5833 121.189 48.35L124.439 48.2V52H111.289ZM145.245 64.75V61.5C146.179 61.5 146.845 61.3167 147.245 60.95C147.679 60.5833 147.945 60.05 148.045 59.35C148.179 58.6833 148.245 57.9167 148.245 57.05V35.9C148.245 35.3 148.262 34.6333 148.295 33.9C148.329 33.1333 148.379 32.3833 148.445 31.65C147.912 31.6833 147.279 31.7167 146.545 31.75C145.812 31.75 145.262 31.7667 144.895 31.8V28C146.462 28 147.762 27.9167 148.795 27.75C149.862 27.5833 150.695 27.3833 151.295 27.15C151.929 26.9167 152.362 26.7 152.595 26.5H155.045C155.112 26.8333 155.162 27.25 155.195 27.75C155.229 28.2167 155.262 28.6 155.295 28.9C156.462 27.9 157.612 27.2 158.745 26.8C159.912 26.4 161.012 26.2 162.045 26.2C164.045 26.2 165.795 26.7167 167.295 27.75C168.829 28.7833 170.012 30.25 170.845 32.15C171.712 34.05 172.145 36.2833 172.145 38.85C172.145 41.5167 171.629 43.9167 170.595 46.05C169.562 48.15 168.112 49.8 166.245 51C164.412 52.2 162.245 52.8 159.745 52.8C158.845 52.8 158.029 52.7 157.295 52.5C156.595 52.3333 155.929 52.1333 155.295 51.9V56.7C155.295 57.1667 155.279 57.8167 155.245 58.65C155.245 59.5167 155.212 60.3333 155.145 61.1C155.679 61.0333 156.262 60.9833 156.895 60.95C157.529 60.95 158.012 60.95 158.345 60.95V64.75H145.245ZM158.945 49.05C160.479 49.0167 161.662 48.5667 162.495 47.7C163.362 46.8 163.962 45.6333 164.295 44.2C164.629 42.7667 164.795 41.2333 164.795 39.6C164.795 38.0667 164.612 36.6167 164.245 35.25C163.879 33.8833 163.295 32.7833 162.495 31.95C161.695 31.0833 160.645 30.6667 159.345 30.7C158.512 30.7333 157.745 30.95 157.045 31.35C156.345 31.7167 155.762 32.2333 155.295 32.9C155.295 33.9333 155.295 34.9667 155.295 36C155.295 37 155.295 38 155.295 39C155.295 40 155.295 41.0167 155.295 42.05C155.295 43.05 155.295 44.0667 155.295 45.1C155.295 46.1 155.295 47.1167 155.295 48.15C155.662 48.3833 156.179 48.6 156.845 48.8C157.512 49 158.212 49.0833 158.945 49.05ZM189.125 52.8C186.691 52.8 184.541 52.2667 182.675 51.2C180.808 50.1 179.358 48.5667 178.325 46.6C177.291 44.6 176.775 42.25 176.775 39.55C176.775 37.2167 177.291 35.0333 178.325 33C179.358 30.9667 180.808 29.3333 182.675 28.1C184.575 26.8333 186.775 26.2 189.275 26.2C190.675 26.2 192.041 26.4 193.375 26.8C194.708 27.1667 195.908 27.8167 196.975 28.75C198.075 29.6833 198.941 30.95 199.575 32.55C200.241 34.15 200.558 36.15 200.525 38.55L184.125 38.85C184.125 40.65 184.341 42.2667 184.775 43.7C185.241 45.1333 185.991 46.2667 187.025 47.1C188.058 47.9333 189.441 48.35 191.175 48.35C191.841 48.35 192.591 48.2333 193.425 48C194.291 47.7667 195.158 47.3833 196.025 46.85C196.925 46.2833 197.758 45.5333 198.525 44.6L200.775 46.7C199.575 48.4 198.291 49.7 196.925 50.6C195.558 51.4667 194.191 52.05 192.825 52.35C191.491 52.65 190.258 52.8 189.125 52.8ZM184.425 35.35H193.625C193.591 33.95 193.391 32.85 193.025 32.05C192.691 31.2167 192.225 30.6167 191.625 30.25C191.025 29.8833 190.325 29.7 189.525 29.7C188.058 29.7 186.908 30.2333 186.075 31.3C185.241 32.3333 184.691 33.6833 184.425 35.35ZM204.729 61.15V48.1H207.279C208.046 48.1 208.712 47.8667 209.279 47.4C209.879 46.9 210.396 46.2333 210.829 45.4C211.196 44.6333 211.529 43.6333 211.829 42.4C212.162 41.1667 212.446 39.8333 212.679 38.4C212.946 36.9667 213.162 35.55 213.329 34.15C213.496 32.75 213.612 31.5 213.679 30.4L208.929 30.8V27H233.729V30.25C232.796 30.25 232.112 30.4333 231.679 30.8C231.279 31.1667 231.012 31.6833 230.879 32.35C230.779 33.0167 230.729 33.8 230.729 34.7V43.95C230.729 44.4167 230.712 45.0667 230.679 45.9C230.646 46.7333 230.596 47.5333 230.529 48.3L235.729 48.1V61.15H232.429C232.496 58.5167 232.229 56.3333 231.629 54.6C231.062 52.8667 230.112 52 228.779 52H211.629C210.329 52 209.379 52.8667 208.779 54.6C208.212 56.3333 207.946 58.5167 207.979 61.15H204.729ZM213.029 48.1H220.679C221.612 48.1 222.279 47.9167 222.679 47.55C223.079 47.1833 223.329 46.6667 223.429 46C223.562 45.3 223.629 44.5167 223.629 43.65V35C223.629 34.5333 223.646 33.9167 223.679 33.15C223.712 32.35 223.762 31.6 223.829 30.9H219.879C219.079 30.9 218.462 31.05 218.029 31.35C217.629 31.6167 217.362 32.1667 217.229 33C216.962 35.0333 216.712 36.7667 216.479 38.2C216.279 39.6333 216.046 40.8833 215.779 41.95C215.512 43.0167 215.196 44 214.829 44.9C214.596 45.4333 214.329 45.9667 214.029 46.5C213.729 47 213.396 47.5333 213.029 48.1ZM244.077 52.7C242.544 52.7 241.277 52.2833 240.277 51.45C239.277 50.6167 238.777 49.5333 238.777 48.2C238.777 47.1 239.094 46.2667 239.727 45.7C240.361 45.1 241.194 44.8 242.227 44.8C243.294 44.8 244.044 45.0833 244.477 45.65C244.944 46.2167 245.177 46.8333 245.177 47.5C245.177 47.9333 245.127 48.2667 245.027 48.5C244.927 48.7 244.811 48.8833 244.677 49.05C244.777 49.15 244.944 49.2 245.177 49.2C246.077 49.2 246.861 48.45 247.527 46.95C248.194 45.45 248.744 43.3 249.177 40.5C249.611 37.7 249.944 34.3333 250.177 30.4L245.427 30.8V27H269.977V30.25C269.044 30.25 268.361 30.4333 267.927 30.8C267.527 31.1667 267.261 31.6833 267.127 32.35C267.027 33.0167 266.977 33.8 266.977 34.7V43.95C266.977 44.4167 266.961 45.0833 266.927 45.95C266.894 46.7833 266.844 47.5833 266.777 48.35L270.027 48.2V52H256.877V48.75C257.811 48.75 258.477 48.5667 258.877 48.2C259.311 47.8333 259.577 47.3167 259.677 46.65C259.811 45.95 259.877 45.1667 259.877 44.3V35.05C259.877 34.5833 259.894 33.9667 259.927 33.2C259.961 32.4 260.011 31.65 260.077 30.95H256.327C255.527 30.95 254.961 31.0833 254.627 31.35C254.294 31.6167 254.094 32.1667 254.027 33C253.827 36.3333 253.461 39.2333 252.927 41.7C252.427 44.1667 251.761 46.2167 250.927 47.85C250.127 49.4833 249.144 50.7 247.977 51.5C246.844 52.3 245.544 52.7 244.077 52.7ZM289.522 52C289.456 51.5333 289.406 51.15 289.372 50.85C289.372 50.5167 289.356 50.1333 289.322 49.7C288.189 50.8333 286.989 51.6333 285.722 52.1C284.456 52.5667 283.172 52.8 281.872 52.8C279.739 52.8 278.072 52.1667 276.872 50.9C275.672 49.6333 275.072 48.05 275.072 46.15C275.072 44.55 275.472 43.1833 276.272 42.05C277.106 40.9167 278.189 40 279.522 39.3C280.889 38.5667 282.389 38.0167 284.022 37.65C285.689 37.25 287.356 37.0167 289.022 36.95V34.35C289.022 33.4833 288.906 32.7 288.672 32C288.472 31.3 288.106 30.75 287.572 30.35C287.072 29.95 286.356 29.7667 285.422 29.8C284.789 29.8333 284.172 29.9667 283.572 30.2C282.972 30.4333 282.456 30.7667 282.022 31.2C282.289 31.5 282.456 31.8333 282.522 32.2C282.589 32.5333 282.622 32.8333 282.622 33.1C282.622 33.7667 282.356 34.4667 281.822 35.2C281.289 35.9 280.439 36.2333 279.272 36.2C278.272 36.1667 277.506 35.8167 276.972 35.15C276.439 34.4833 276.172 33.7 276.172 32.8C276.172 31.4667 276.639 30.3167 277.572 29.35C278.539 28.35 279.822 27.5833 281.422 27.05C283.022 26.4833 284.789 26.2 286.722 26.2C289.656 26.2 291.922 26.9667 293.522 28.5C295.156 30 295.972 32.4167 295.972 35.75C295.972 36.8833 295.972 37.85 295.972 38.65C295.972 39.45 295.956 40.25 295.922 41.05C295.922 41.85 295.922 42.8167 295.922 43.95C295.922 44.4167 295.906 45.0833 295.872 45.95C295.839 46.7833 295.789 47.5833 295.722 48.35C296.289 48.2833 296.889 48.25 297.522 48.25C298.156 48.2167 298.639 48.2 298.972 48.2V52H289.522ZM288.972 40.5C288.039 40.6 287.156 40.7667 286.322 41C285.489 41.2333 284.756 41.55 284.122 41.95C283.522 42.35 283.039 42.8333 282.672 43.4C282.339 43.9667 282.172 44.6 282.172 45.3C282.206 46.2333 282.506 46.9 283.072 47.3C283.639 47.7 284.289 47.9 285.022 47.9C285.789 47.9 286.506 47.7333 287.172 47.4C287.839 47.0667 288.439 46.6333 288.972 46.1C288.972 45.7667 288.972 45.45 288.972 45.15C288.972 44.8167 288.972 44.4833 288.972 44.15C288.972 43.55 288.972 42.95 288.972 42.35C288.972 41.7167 288.972 41.1 288.972 40.5ZM303.443 52V48.75C304.376 48.75 305.043 48.5667 305.443 48.2C305.876 47.8333 306.143 47.3167 306.243 46.65C306.376 45.95 306.443 45.1667 306.443 44.3V35.05C306.443 34.5833 306.46 33.9167 306.493 33.05C306.526 32.1833 306.56 31.3833 306.593 30.65C306.06 30.6833 305.476 30.7167 304.843 30.75C304.243 30.7833 303.76 30.8 303.393 30.8V27H324.293L324.493 36.1H321.243C321.243 34.7 321.076 33.6333 320.743 32.9C320.443 32.1333 319.96 31.6167 319.293 31.35C318.66 31.05 317.843 30.9 316.843 30.9H313.543V43.95C313.543 44.4167 313.526 45.0833 313.493 45.95C313.46 46.7833 313.41 47.5833 313.343 48.35L317.593 48.2V52H303.443ZM343.548 52C343.481 51.5333 343.431 51.15 343.398 50.85C343.398 50.5167 343.381 50.1333 343.348 49.7C342.214 50.8333 341.014 51.6333 339.748 52.1C338.481 52.5667 337.198 52.8 335.898 52.8C333.764 52.8 332.098 52.1667 330.898 50.9C329.698 49.6333 329.098 48.05 329.098 46.15C329.098 44.55 329.498 43.1833 330.298 42.05C331.131 40.9167 332.214 40 333.548 39.3C334.914 38.5667 336.414 38.0167 338.048 37.65C339.714 37.25 341.381 37.0167 343.048 36.95V34.35C343.048 33.4833 342.931 32.7 342.698 32C342.498 31.3 342.131 30.75 341.598 30.35C341.098 29.95 340.381 29.7667 339.448 29.8C338.814 29.8333 338.198 29.9667 337.598 30.2C336.998 30.4333 336.481 30.7667 336.048 31.2C336.314 31.5 336.481 31.8333 336.548 32.2C336.614 32.5333 336.648 32.8333 336.648 33.1C336.648 33.7667 336.381 34.4667 335.848 35.2C335.314 35.9 334.464 36.2333 333.298 36.2C332.298 36.1667 331.531 35.8167 330.998 35.15C330.464 34.4833 330.198 33.7 330.198 32.8C330.198 31.4667 330.664 30.3167 331.598 29.35C332.564 28.35 333.848 27.5833 335.448 27.05C337.048 26.4833 338.814 26.2 340.748 26.2C343.681 26.2 345.948 26.9667 347.548 28.5C349.181 30 349.998 32.4167 349.998 35.75C349.998 36.8833 349.998 37.85 349.998 38.65C349.998 39.45 349.981 40.25 349.948 41.05C349.948 41.85 349.948 42.8167 349.948 43.95C349.948 44.4167 349.931 45.0833 349.898 45.95C349.864 46.7833 349.814 47.5833 349.748 48.35C350.314 48.2833 350.914 48.25 351.548 48.25C352.181 48.2167 352.664 48.2 352.998 48.2V52H343.548ZM342.998 40.5C342.064 40.6 341.181 40.7667 340.348 41C339.514 41.2333 338.781 41.55 338.148 41.95C337.548 42.35 337.064 42.8333 336.698 43.4C336.364 43.9667 336.198 44.6 336.198 45.3C336.231 46.2333 336.531 46.9 337.098 47.3C337.664 47.7 338.314 47.9 339.048 47.9C339.814 47.9 340.531 47.7333 341.198 47.4C341.864 47.0667 342.464 46.6333 342.998 46.1C342.998 45.7667 342.998 45.45 342.998 45.15C342.998 44.8167 342.998 44.4833 342.998 44.15C342.998 43.55 342.998 42.95 342.998 42.35C342.998 41.7167 342.998 41.1 342.998 40.5ZM369.218 52.8C366.785 52.8 364.635 52.2667 362.768 51.2C360.902 50.1 359.452 48.5667 358.418 46.6C357.385 44.6 356.868 42.25 356.868 39.55C356.868 37.2167 357.385 35.0333 358.418 33C359.452 30.9667 360.902 29.3333 362.768 28.1C364.668 26.8333 366.868 26.2 369.368 26.2C370.768 26.2 372.135 26.4 373.468 26.8C374.802 27.1667 376.002 27.8167 377.068 28.75C378.168 29.6833 379.035 30.95 379.668 32.55C380.335 34.15 380.652 36.15 380.618 38.55L364.218 38.85C364.218 40.65 364.435 42.2667 364.868 43.7C365.335 45.1333 366.085 46.2667 367.118 47.1C368.152 47.9333 369.535 48.35 371.268 48.35C371.935 48.35 372.685 48.2333 373.518 48C374.385 47.7667 375.252 47.3833 376.118 46.85C377.018 46.2833 377.852 45.5333 378.618 44.6L380.868 46.7C379.668 48.4 378.385 49.7 377.018 50.6C375.652 51.4667 374.285 52.05 372.918 52.35C371.585 52.65 370.352 52.8 369.218 52.8ZM364.518 35.35H373.718C373.685 33.95 373.485 32.85 373.118 32.05C372.785 31.2167 372.318 30.6167 371.718 30.25C371.118 29.8833 370.418 29.7 369.618 29.7C368.152 29.7 367.002 30.2333 366.168 31.3C365.335 32.3333 364.785 33.6833 364.518 35.35ZM385.123 52V48.75C386.189 48.6833 386.989 48.4667 387.523 48.1C388.056 47.7333 388.389 47.0333 388.523 46L390.223 32.95C390.289 32.4833 390.339 32.0667 390.373 31.7C390.406 31.3 390.473 30.95 390.573 30.65L386.623 30.8V27H396.373L402.123 40.7C402.389 41.3333 402.689 42.0333 403.023 42.8C403.356 43.5667 403.639 44.2833 403.873 44.95C404.073 44.3833 404.273 43.8333 404.473 43.3C404.673 42.7667 404.873 42.2167 405.073 41.65L410.373 27H420.273V29.8C419.239 29.8333 418.473 30.0667 417.973 30.5C417.473 30.9333 417.306 31.6 417.473 32.5L419.723 45.4C419.923 46.3667 419.973 47.35 419.873 48.35L422.623 48.2V52H410.723V48.75C411.789 48.75 412.573 48.5667 413.073 48.2C413.573 47.8333 413.723 47.1167 413.523 46.05L411.373 34.3L404.673 52H400.723L395.223 38.9C394.889 38.1 394.589 37.3667 394.323 36.7C394.089 36 393.839 35.2833 393.573 34.55C393.573 35.3833 393.539 36.2 393.473 37C393.406 37.8 393.289 38.7167 393.123 39.75L392.123 46.15C392.089 46.55 392.023 46.9167 391.923 47.25C391.856 47.5833 391.773 47.9333 391.673 48.3L394.973 48.2V52H385.123Z" fill="#2F70D9"/>
</svg>
