<svg width="360" height="66" viewBox="0 0 360 66" fill="none" xmlns="http://www.w3.org/2000/svg">
<path d="M227 10.3333L235.261 3.95231C236.739 2.81042 238.81 2.84365 240.251 4.03235L247.364 9.89994C248.842 11.1193 250.977 11.1193 252.455 9.89994L259.485 4.10006C260.963 2.88072 263.098 2.88072 264.576 4.10006L271.606 9.89994C273.084 11.1193 275.219 11.1193 276.697 9.89994L283.727 4.10006C285.205 2.88072 287.34 2.88072 288.818 4.10006L295.848 9.89994C297.326 11.1193 299.461 11.1193 300.939 9.89994L307.97 4.10006C309.448 2.88072 311.583 2.88072 313.061 4.10006L320.091 9.89994C321.569 11.1193 323.704 11.1193 325.182 9.89994L332.212 4.10006C333.69 2.88072 335.825 2.88072 337.303 4.10006L344.336 9.90203C345.813 11.1204 347.946 11.1215 349.424 9.90453L357 3.66667" stroke="#686868" stroke-width="5" stroke-linecap="round"/>
<path d="M2.5 52V48.7C3.26667 48.6667 3.9 48.5667 4.4 48.4C4.93333 48.2333 5.33333 47.85 5.6 47.25C5.9 46.65 6.05 45.6833 6.05 44.35V25.2C6.05 24.3 6.06667 23.4333 6.1 22.6C6.16667 21.7667 6.21667 21.1333 6.25 20.7C5.71667 20.7333 5.05 20.7667 4.25 20.8C3.45 20.8 2.86667 20.8167 2.5 20.85V17H16.85V20.3C16.1167 20.3333 15.4833 20.4333 14.95 20.6C14.4167 20.7667 14 21.15 13.7 21.75C13.4333 22.3167 13.3 23.2833 13.3 24.65V32.45H27.05V25.2C27.05 24.3 27.0667 23.4333 27.1 22.6C27.1333 21.7667 27.1833 21.1333 27.25 20.7C26.7167 20.7333 26.05 20.7667 25.25 20.8C24.45 20.8 23.8667 20.8167 23.5 20.85V17H37.85V20.3C37.1167 20.3333 36.4833 20.4333 35.95 20.6C35.4167 20.7667 35 21.15 34.7 21.75C34.4333 22.3167 34.3 23.2833 34.3 24.65V43.8C34.3 44.7 34.2833 45.5667 34.25 46.4C34.2167 47.2333 34.1667 47.8667 34.1 48.3C34.6333 48.2333 35.3 48.2 36.1 48.2C36.9333 48.1667 37.5167 48.15 37.85 48.15V52H23.5V48.7C24.2667 48.6667 24.9 48.5667 25.4 48.4C25.9333 48.2333 26.3333 47.85 26.6 47.25C26.9 46.65 27.05 45.6833 27.05 44.35V36.25L13.3 36.4V43.8C13.3 44.7 13.2833 45.5667 13.25 46.4C13.2167 47.2333 13.1667 47.8667 13.1 48.3C13.6333 48.2333 14.3 48.2 15.1 48.2C15.9333 48.1667 16.5167 48.15 16.85 48.15V52H2.5ZM57.1961 52C57.1294 51.5333 57.0794 51.15 57.0461 50.85C57.0461 50.5167 57.0294 50.1333 56.9961 49.7C55.8628 50.8333 54.6628 51.6333 53.3961 52.1C52.1294 52.5667 50.8461 52.8 49.5461 52.8C47.4128 52.8 45.7461 52.1667 44.5461 50.9C43.3461 49.6333 42.7461 48.05 42.7461 46.15C42.7461 44.55 43.1461 43.1833 43.9461 42.05C44.7794 40.9167 45.8628 40 47.1961 39.3C48.5628 38.5667 50.0628 38.0167 51.6961 37.65C53.3628 37.25 55.0294 37.0167 56.6961 36.95V34.35C56.6961 33.4833 56.5794 32.7 56.3461 32C56.1461 31.3 55.7794 30.75 55.2461 30.35C54.7461 29.95 54.0294 29.7667 53.0961 29.8C52.4628 29.8333 51.8461 29.9667 51.2461 30.2C50.6461 30.4333 50.1294 30.7667 49.6961 31.2C49.9628 31.5 50.1294 31.8333 50.1961 32.2C50.2628 32.5333 50.2961 32.8333 50.2961 33.1C50.2961 33.7667 50.0294 34.4667 49.4961 35.2C48.9628 35.9 48.1128 36.2333 46.9461 36.2C45.9461 36.1667 45.1794 35.8167 44.6461 35.15C44.1128 34.4833 43.8461 33.7 43.8461 32.8C43.8461 31.4667 44.3128 30.3167 45.2461 29.35C46.2128 28.35 47.4961 27.5833 49.0961 27.05C50.6961 26.4833 52.4628 26.2 54.3961 26.2C57.3294 26.2 59.5961 26.9667 61.1961 28.5C62.8294 30 63.6461 32.4167 63.6461 35.75C63.6461 36.8833 63.6461 37.85 63.6461 38.65C63.6461 39.45 63.6294 40.25 63.5961 41.05C63.5961 41.85 63.5961 42.8167 63.5961 43.95C63.5961 44.4167 63.5794 45.0833 63.5461 45.95C63.5128 46.7833 63.4628 47.5833 63.3961 48.35C63.9628 48.2833 64.5628 48.25 65.1961 48.25C65.8294 48.2167 66.3128 48.2 66.6461 48.2V52H57.1961ZM56.6461 40.5C55.7128 40.6 54.8294 40.7667 53.9961 41C53.1628 41.2333 52.4294 41.55 51.7961 41.95C51.1961 42.35 50.7128 42.8333 50.3461 43.4C50.0128 43.9667 49.8461 44.6 49.8461 45.3C49.8794 46.2333 50.1794 46.9 50.7461 47.3C51.3128 47.7 51.9628 47.9 52.6961 47.9C53.4628 47.9 54.1794 47.7333 54.8461 47.4C55.5128 47.0667 56.1128 46.6333 56.6461 46.1C56.6461 45.7667 56.6461 45.45 56.6461 45.15C56.6461 44.8167 56.6461 44.4833 56.6461 44.15C56.6461 43.55 56.6461 42.95 56.6461 42.35C56.6461 41.7167 56.6461 41.1 56.6461 40.5ZM71.1168 52V48.75C72.0501 48.75 72.7168 48.5667 73.1168 48.2C73.5501 47.8333 73.8168 47.3167 73.9168 46.65C74.0501 45.95 74.1168 45.1667 74.1168 44.3V35.05C74.1168 34.5833 74.1335 33.9167 74.1668 33.05C74.2001 32.1833 74.2335 31.3833 74.2668 30.65L71.0668 30.8V27H83.7168V30.25C82.8835 30.25 82.2668 30.4333 81.8668 30.8C81.4668 31.1667 81.2168 31.6833 81.1168 32.35C81.0168 33.0167 80.9668 33.8 80.9668 34.7V43.95C80.9668 44.4167 80.9501 45.05 80.9168 45.85C80.8835 46.6167 80.8335 47.35 80.7668 48.05H85.1668C86.1001 48.05 86.7668 47.9 87.1668 47.6C87.6001 47.2667 87.8668 46.8167 87.9668 46.25C88.1001 45.6833 88.1668 45.0333 88.1668 44.3V35.05C88.1668 34.5833 88.1835 33.9167 88.2168 33.05C88.2501 32.1833 88.3001 31.3833 88.3668 30.65L85.8168 30.8V27H97.7168V30.25C96.8835 30.25 96.2668 30.4333 95.8668 30.8C95.5001 31.1667 95.2668 31.6833 95.1668 32.35C95.0668 33.0167 95.0168 33.8 95.0168 34.7V43.95C95.0168 44.4167 95.0001 45.0333 94.9668 45.8C94.9335 46.5667 94.8835 47.3167 94.8168 48.05H99.2168C100.15 48.05 100.817 47.9 101.217 47.6C101.65 47.2667 101.917 46.8167 102.017 46.25C102.15 45.6833 102.217 45.0333 102.217 44.3V35.05C102.217 34.5833 102.233 33.9167 102.267 33.05C102.3 32.1833 102.35 31.3833 102.417 30.65L99.9168 30.8V27H112.017V30.25C111.117 30.25 110.45 30.4333 110.017 30.8C109.617 31.1667 109.35 31.6833 109.217 32.35C109.117 33.0167 109.067 33.8 109.067 34.7V43.95C109.067 44.4167 109.05 45.0833 109.017 45.95C108.983 46.7833 108.933 47.5833 108.867 48.35L112.117 48.2V52H71.1168ZM130.732 30.25C129.832 30.25 129.165 30.4333 128.732 30.8C128.332 31.1667 128.065 31.6833 127.932 32.35C127.832 33.0167 127.782 33.8 127.782 34.7V43.95C127.782 44.4167 127.765 45.0833 127.732 45.95C127.698 46.7833 127.648 47.5833 127.582 48.35C128.115 48.2833 128.698 48.25 129.332 48.25C129.998 48.2167 130.498 48.2 130.832 48.2V52H117.732V48.75C118.665 48.75 119.332 48.5667 119.732 48.2C120.132 47.8333 120.382 47.3167 120.482 46.65C120.615 45.95 120.682 45.1667 120.682 44.3V35.05C120.682 34.5833 120.698 33.9167 120.732 33.05C120.765 32.1833 120.815 31.3833 120.882 30.65C120.348 30.6833 119.765 30.7167 119.132 30.75C118.498 30.7833 117.998 30.8 117.632 30.8V27H130.732V30.25ZM138.132 31.2L140.532 33.7L126.182 47.5L123.732 44.95L138.132 31.2ZM146.932 30.25C146.032 30.25 145.365 30.4333 144.932 30.8C144.532 31.1667 144.265 31.6833 144.132 32.35C144.032 33.0167 143.982 33.8 143.982 34.7V43.95C143.982 44.4167 143.965 45.0833 143.932 45.95C143.898 46.7833 143.848 47.5833 143.782 48.35C144.315 48.2833 144.898 48.25 145.532 48.25C146.198 48.2167 146.698 48.2 147.032 48.2V52H133.932V48.75C134.865 48.75 135.532 48.5667 135.932 48.2C136.332 47.8333 136.582 47.3167 136.682 46.65C136.815 45.95 136.882 45.1667 136.882 44.3V35.05C136.882 34.5833 136.898 33.9167 136.932 33.05C136.965 32.1833 137.015 31.3833 137.082 30.65C136.548 30.6833 135.965 30.7167 135.332 30.75C134.698 30.7833 134.198 30.8 133.832 30.8V27H146.932V30.25ZM179.977 30.25C179.043 30.25 178.36 30.4333 177.927 30.8C177.527 31.1667 177.26 31.6833 177.127 32.35C177.027 33.0167 176.977 33.8 176.977 34.7V43.95C176.977 44.4167 176.96 45.0833 176.927 45.95C176.893 46.7833 176.843 47.5833 176.777 48.35L180.027 48.2V52H166.877V48.75C167.81 48.75 168.477 48.5667 168.877 48.2C169.31 47.8333 169.577 47.3167 169.677 46.65C169.81 45.95 169.877 45.1667 169.877 44.3V35.05C169.877 34.5833 169.893 33.9167 169.927 33.05C169.96 32.1833 169.993 31.3833 170.027 30.65L166.827 30.8V27H179.977V30.25ZM195.877 30.25C194.943 30.25 194.26 30.4333 193.827 30.8C193.427 31.1667 193.16 31.6833 193.027 32.35C192.927 33.0167 192.877 33.8 192.877 34.7V43.95C192.877 44.4167 192.86 45.0833 192.827 45.95C192.827 46.7833 192.793 47.5833 192.727 48.35L195.977 48.2V52H182.777V48.75C183.71 48.75 184.377 48.5667 184.777 48.2C185.21 47.8333 185.477 47.3167 185.577 46.65C185.71 45.95 185.777 45.1667 185.777 44.3V35.05C185.777 34.5833 185.793 33.9167 185.827 33.05C185.86 32.1833 185.91 31.3833 185.977 30.65L182.727 30.8V27H195.877V30.25ZM173.777 37.3H187.177V41.15L173.777 41.25V37.3ZM213.827 52.8C211.427 52.8 209.261 52.2833 207.327 51.25C205.394 50.2167 203.861 48.75 202.727 46.85C201.627 44.9167 201.077 42.65 201.077 40.05C201.077 37.2833 201.644 34.8667 202.777 32.8C203.944 30.7 205.477 29.0833 207.377 27.95C209.311 26.7833 211.411 26.2 213.677 26.2C216.077 26.2 218.227 26.7167 220.127 27.75C222.027 28.7833 223.527 30.2667 224.627 32.2C225.727 34.1 226.277 36.3833 226.277 39.05C226.277 41.85 225.744 44.2833 224.677 46.35C223.611 48.4167 222.144 50.0167 220.277 51.15C218.411 52.25 216.261 52.8 213.827 52.8ZM214.027 49.25C215.361 49.2167 216.361 48.75 217.027 47.85C217.727 46.95 218.211 45.8167 218.477 44.45C218.744 43.0833 218.877 41.7 218.877 40.3C218.877 39.0667 218.777 37.8167 218.577 36.55C218.411 35.2833 218.127 34.1333 217.727 33.1C217.327 32.0667 216.777 31.2333 216.077 30.6C215.411 29.9667 214.577 29.6667 213.577 29.7C212.277 29.7333 211.244 30.2 210.477 31.1C209.744 32 209.211 33.1333 208.877 34.5C208.577 35.8333 208.427 37.2333 208.427 38.7C208.427 40.4 208.611 42.0667 208.977 43.7C209.344 45.3333 209.927 46.6833 210.727 47.75C211.561 48.7833 212.661 49.2833 214.027 49.25ZM230.748 52V48.75C231.814 48.6833 232.614 48.4667 233.148 48.1C233.681 47.7333 234.014 47.0333 234.148 46L235.848 32.95C235.914 32.4833 235.964 32.0667 235.998 31.7C236.031 31.3 236.098 30.95 236.198 30.65L232.248 30.8V27H241.998L247.748 40.7C248.014 41.3333 248.314 42.0333 248.648 42.8C248.981 43.5667 249.264 44.2833 249.498 44.95C249.698 44.3833 249.898 43.8333 250.098 43.3C250.298 42.7667 250.498 42.2167 250.698 41.65L255.998 27H265.898V29.8C264.864 29.8333 264.098 30.0667 263.598 30.5C263.098 30.9333 262.931 31.6 263.098 32.5L265.348 45.4C265.548 46.3667 265.598 47.35 265.498 48.35L268.248 48.2V52H256.348V48.75C257.414 48.75 258.198 48.5667 258.698 48.2C259.198 47.8333 259.348 47.1167 259.148 46.05L256.998 34.3L250.298 52H246.348L240.848 38.9C240.514 38.1 240.214 37.3667 239.948 36.7C239.714 36 239.464 35.2833 239.198 34.55C239.198 35.3833 239.164 36.2 239.098 37C239.031 37.8 238.914 38.7167 238.748 39.75L237.748 46.15C237.714 46.55 237.648 46.9167 237.548 47.25C237.481 47.5833 237.398 47.9333 237.298 48.3L240.598 48.2V52H230.748ZM284.738 52.8C282.305 52.8 280.155 52.2667 278.288 51.2C276.421 50.1 274.971 48.5667 273.938 46.6C272.905 44.6 272.388 42.25 272.388 39.55C272.388 37.2167 272.905 35.0333 273.938 33C274.971 30.9667 276.421 29.3333 278.288 28.1C280.188 26.8333 282.388 26.2 284.888 26.2C286.288 26.2 287.655 26.4 288.988 26.8C290.321 27.1667 291.521 27.8167 292.588 28.75C293.688 29.6833 294.555 30.95 295.188 32.55C295.855 34.15 296.171 36.15 296.138 38.55L279.738 38.85C279.738 40.65 279.955 42.2667 280.388 43.7C280.855 45.1333 281.605 46.2667 282.638 47.1C283.671 47.9333 285.055 48.35 286.788 48.35C287.455 48.35 288.205 48.2333 289.038 48C289.905 47.7667 290.771 47.3833 291.638 46.85C292.538 46.2833 293.371 45.5333 294.138 44.6L296.388 46.7C295.188 48.4 293.905 49.7 292.538 50.6C291.171 51.4667 289.805 52.05 288.438 52.35C287.105 52.65 285.871 52.8 284.738 52.8ZM280.038 35.35H289.238C289.205 33.95 289.005 32.85 288.638 32.05C288.305 31.2167 287.838 30.6167 287.238 30.25C286.638 29.8833 285.938 29.7 285.138 29.7C283.671 29.7 282.521 30.2333 281.688 31.3C280.855 32.3333 280.305 33.6833 280.038 35.35ZM300.792 64.75V61.5C301.726 61.5 302.392 61.3167 302.792 60.95C303.226 60.5833 303.492 60.05 303.592 59.35C303.726 58.6833 303.792 57.9167 303.792 57.05V35.9C303.792 35.3 303.809 34.6333 303.842 33.9C303.876 33.1333 303.926 32.3833 303.992 31.65C303.459 31.6833 302.826 31.7167 302.092 31.75C301.359 31.75 300.809 31.7667 300.442 31.8V28C302.009 28 303.309 27.9167 304.342 27.75C305.409 27.5833 306.242 27.3833 306.842 27.15C307.476 26.9167 307.909 26.7 308.142 26.5H310.592C310.659 26.8333 310.709 27.25 310.742 27.75C310.776 28.2167 310.809 28.6 310.842 28.9C312.009 27.9 313.159 27.2 314.292 26.8C315.459 26.4 316.559 26.2 317.592 26.2C319.592 26.2 321.342 26.7167 322.842 27.75C324.376 28.7833 325.559 30.25 326.392 32.15C327.259 34.05 327.692 36.2833 327.692 38.85C327.692 41.5167 327.176 43.9167 326.142 46.05C325.109 48.15 323.659 49.8 321.792 51C319.959 52.2 317.792 52.8 315.292 52.8C314.392 52.8 313.576 52.7 312.842 52.5C312.142 52.3333 311.476 52.1333 310.842 51.9V56.7C310.842 57.1667 310.826 57.8167 310.792 58.65C310.792 59.5167 310.759 60.3333 310.692 61.1C311.226 61.0333 311.809 60.9833 312.442 60.95C313.076 60.95 313.559 60.95 313.892 60.95V64.75H300.792ZM314.492 49.05C316.026 49.0167 317.209 48.5667 318.042 47.7C318.909 46.8 319.509 45.6333 319.842 44.2C320.176 42.7667 320.342 41.2333 320.342 39.6C320.342 38.0667 320.159 36.6167 319.792 35.25C319.426 33.8833 318.842 32.7833 318.042 31.95C317.242 31.0833 316.192 30.6667 314.892 30.7C314.059 30.7333 313.292 30.95 312.592 31.35C311.892 31.7167 311.309 32.2333 310.842 32.9C310.842 33.9333 310.842 34.9667 310.842 36C310.842 37 310.842 38 310.842 39C310.842 40 310.842 41.0167 310.842 42.05C310.842 43.05 310.842 44.0667 310.842 45.1C310.842 46.1 310.842 47.1167 310.842 48.15C311.209 48.3833 311.726 48.6 312.392 48.8C313.059 49 313.759 49.0833 314.492 49.05ZM346.721 52C346.655 51.5333 346.605 51.15 346.571 50.85C346.571 50.5167 346.555 50.1333 346.521 49.7C345.388 50.8333 344.188 51.6333 342.921 52.1C341.655 52.5667 340.371 52.8 339.071 52.8C336.938 52.8 335.271 52.1667 334.071 50.9C332.871 49.6333 332.271 48.05 332.271 46.15C332.271 44.55 332.671 43.1833 333.471 42.05C334.305 40.9167 335.388 40 336.721 39.3C338.088 38.5667 339.588 38.0167 341.221 37.65C342.888 37.25 344.555 37.0167 346.221 36.95V34.35C346.221 33.4833 346.105 32.7 345.871 32C345.671 31.3 345.305 30.75 344.771 30.35C344.271 29.95 343.555 29.7667 342.621 29.8C341.988 29.8333 341.371 29.9667 340.771 30.2C340.171 30.4333 339.655 30.7667 339.221 31.2C339.488 31.5 339.655 31.8333 339.721 32.2C339.788 32.5333 339.821 32.8333 339.821 33.1C339.821 33.7667 339.555 34.4667 339.021 35.2C338.488 35.9 337.638 36.2333 336.471 36.2C335.471 36.1667 334.705 35.8167 334.171 35.15C333.638 34.4833 333.371 33.7 333.371 32.8C333.371 31.4667 333.838 30.3167 334.771 29.35C335.738 28.35 337.021 27.5833 338.621 27.05C340.221 26.4833 341.988 26.2 343.921 26.2C346.855 26.2 349.121 26.9667 350.721 28.5C352.355 30 353.171 32.4167 353.171 35.75C353.171 36.8833 353.171 37.85 353.171 38.65C353.171 39.45 353.155 40.25 353.121 41.05C353.121 41.85 353.121 42.8167 353.121 43.95C353.121 44.4167 353.105 45.0833 353.071 45.95C353.038 46.7833 352.988 47.5833 352.921 48.35C353.488 48.2833 354.088 48.25 354.721 48.25C355.355 48.2167 355.838 48.2 356.171 48.2V52H346.721ZM346.171 40.5C345.238 40.6 344.355 40.7667 343.521 41C342.688 41.2333 341.955 41.55 341.321 41.95C340.721 42.35 340.238 42.8333 339.871 43.4C339.538 43.9667 339.371 44.6 339.371 45.3C339.405 46.2333 339.705 46.9 340.271 47.3C340.838 47.7 341.488 47.9 342.221 47.9C342.988 47.9 343.705 47.7333 344.371 47.4C345.038 47.0667 345.638 46.6333 346.171 46.1C346.171 45.7667 346.171 45.45 346.171 45.15C346.171 44.8167 346.171 44.4833 346.171 44.15C346.171 43.55 346.171 42.95 346.171 42.35C346.171 41.7167 346.171 41.1 346.171 40.5Z" fill="#2F70D9"/>
</svg>
